<svg xmlns="http://www.w3.org/2000/svg" viewBox="0 0 48 48">
  <style>
    .st3,.st30{fill:none;stroke:#45413c;stroke-linecap:round;stroke-linejoin:round;stroke-miterlimit:10}.st30{fill:#fff}.st76{fill:#dabff5}
  </style>
  <g>
    <ellipse cx="24" cy="44.5" rx="14" ry="1.5" style="opacity:.15;fill:#45413c"/>
    <g>
      <g>
        <path d="M34 35.6s-4.4 2.2-10 2.2-10-2.2-10-2.2 4.4-.7 10-.7 10 .7 10 .7z" style="fill:#915e3a;stroke:#45413c;stroke-linecap:round;stroke-linejoin:round;stroke-miterlimit:10"/>
        <path d="M36.4 40.4c.3.7.1 1.5-.6 1.9-1.8 1.1-5.6 2.9-11.8 2.9s-10.1-1.8-11.8-2.9c-.7-.4-.9-1.2-.6-1.9l2.4-4.8s4.4 2.2 10 2.2 10-2.2 10-2.2l2.4 4.8z" style="fill:#dea47a"/>
        <path d="M24 40.6c4.7 0 8.9-1.2 11.4-2.1L34 35.6s-4.4 2.2-10 2.2-10-2.2-10-2.2l-1.4 2.8c2.5 1 6.7 2.2 11.4 2.2z" style="fill:#bf8256"/>
        <path d="M36.4 40.4c.3.7.1 1.5-.6 1.9-1.8 1.1-5.6 2.9-11.8 2.9s-10.1-1.8-11.8-2.9c-.7-.4-.9-1.2-.6-1.9l2.4-4.8s4.4 2.2 10 2.2 10-2.2 10-2.2l2.4 4.8z" class="st3"/>
      </g>
      <g>
        <g>
          <circle cx="24" cy="20.5" r="15.1" style="fill:#bf8df2"/>
          <path d="M24 5.4c-8.4 0-15.1 6.8-15.1 15.1 0 8.4 6.8 15.1 15.1 15.1s15.1-6.8 15.1-15.1c0-8.4-6.7-15.1-15.1-15.1zm0 24.7c-6.7 0-12.2-5.5-12.2-12.2 0-6.7 5.5-12.2 12.2-12.2s12.2 5.5 12.2 12.2c0 6.7-5.5 12.2-12.2 12.2z" style="fill:#9f5ae5"/>
          <circle cx="24" cy="20.5" r="15.1" class="st3"/>
        </g>
        <circle cx="29.9" cy="15.3" r="3.7" class="st76"/>
        <circle cx="22.9" cy="17.2" r="1.1" class="st76"/>
        <circle cx="23.6" cy="11.3" r="1.8" class="st76"/>
      </g>
      <path d="M40.6 28.3s-.4 3-3 4.4" class="st3"/>
      <path d="M36.9 34.9s2.6-.4 3.7-2.2" class="st3"/>
      <path d="M5.9 15.7s.7-3.7 3-5.2" class="st3"/>
      <path d="M4.4 12.7s-.7 3 0 5.2" class="st3"/>
      <path d="M42 8.4c.2-.7.7-1.2 1.3-1.3l2.7-.6c.1 0 .2-.1.2-.2s-.1-.2-.2-.3l-2.7-.6c-.7-.2-1.2-.7-1.3-1.3l-.6-2.7c0-.1-.1-.2-.2-.2s-.2.1-.2.2l-.6 2.7c-.2.7-.7 1.2-1.3 1.3l-2.8.6c-.1 0-.2.1-.2.2s.1.2.2.2l2.7.7c.7.2 1.2.7 1.3 1.3l.6 2.7c0 .1.1.2.2.2s.2-.1.2-.2l.7-2.7z" class="st30"/>
      <path d="m5.8 32.3 2.1-.7c.1 0 .1-.1.1-.2s-.1-.2-.1-.2l-1.7-.6c-.2-.1-.4-.3-.5-.5l-.6-1.7c0-.1-.1-.1-.2-.1s-.2.1-.2.1l-.6 1.7c-.1.2-.3.4-.5.5l-1.6.6c-.1 0-.1.1-.1.2s.1.2.1.2l1.7.6c.2.1.4.3.5.5l.6 1.7c0 .1.1.1.2.1s.2-.1.2-.1l.6-2.1z" class="st30"/>
    </g>
  </g>
</svg>
